<mxfile host="Electron" modified="2024-01-28T19:21:47.538Z" agent="Mozilla/5.0 (Windows NT 10.0; Win64; x64) AppleWebKit/537.36 (KHTML, like Gecko) draw.io/22.1.2 Chrome/114.0.5735.289 Electron/25.9.4 Safari/537.36" etag="SR9JycNhicWYpzNShJu7" version="22.1.2" type="device">
  <diagram id="yPxyJZ8AM_hMuL3Unpa9" name="context">
    <mxGraphModel dx="1098" dy="753" grid="1" gridSize="10" guides="1" tooltips="1" connect="1" arrows="1" fold="1" page="1" pageScale="1" pageWidth="1100" pageHeight="850" math="0" shadow="0">
      <root>
        <mxCell id="0" />
        <mxCell id="1" parent="0" />
        <mxCell id="g7wwVclupHJGgVZiyPSR-1" value="&lt;font style=&quot;font-size: 11px;&quot; data-font-src=&quot;https://fonts.googleapis.com/css?family=Volkorn&quot;&gt;rain intensity forecasting system&lt;/font&gt;" style="shape=ellipse;html=1;dashed=0;whiteSpace=wrap;perimeter=ellipsePerimeter;rotation=0;fillColor=#CCCCFF;strokeColor=none;opacity=70;fontFamily=Volkorn;fontSource=https%3A%2F%2Ffonts.googleapis.com%2Fcss%3Ffamily%3DVolkorn;" vertex="1" parent="1">
          <mxGeometry x="595" y="348" width="80" height="80" as="geometry" />
        </mxCell>
        <UserObject label="&lt;span style=&quot;font-size: 11px;&quot;&gt;guest&lt;/span&gt;" tooltip="External Actor" id="g7wwVclupHJGgVZiyPSR-3">
          <mxCell style="html=1;dashed=0;whiteSpace=wrap;fillColor=#CCCCFF;strokeColor=none;rounded=1;opacity=70;fontFamily=Volkorn;fontSource=https%3A%2F%2Ffonts.googleapis.com%2Fcss%3Ffamily%3DVolkorn;" vertex="1" parent="1">
            <mxGeometry x="362" y="363" width="100" height="50" as="geometry" />
          </mxCell>
        </UserObject>
        <mxCell id="g7wwVclupHJGgVZiyPSR-5" value="" style="endArrow=blockThin;html=1;rounded=0;fontFamily=EB Garamond;endFill=1;" edge="1" parent="1">
          <mxGeometry width="50" height="50" relative="1" as="geometry">
            <mxPoint x="486" y="376" as="sourcePoint" />
            <mxPoint x="576" y="376" as="targetPoint" />
          </mxGeometry>
        </mxCell>
        <mxCell id="g7wwVclupHJGgVZiyPSR-7" value="request &lt;br style=&quot;font-size: 9px;&quot;&gt;forecast" style="edgeLabel;html=1;align=center;verticalAlign=middle;resizable=0;points=[];fontFamily=EB Garamond;fontSize=9;" vertex="1" connectable="0" parent="g7wwVclupHJGgVZiyPSR-5">
          <mxGeometry x="-0.0889" y="2" relative="1" as="geometry">
            <mxPoint as="offset" />
          </mxGeometry>
        </mxCell>
        <mxCell id="g7wwVclupHJGgVZiyPSR-6" value="" style="endArrow=none;html=1;rounded=0;fontFamily=EB Garamond;endFill=0;startArrow=blockThin;startFill=1;labelPosition=center;verticalLabelPosition=middle;align=center;verticalAlign=middle;" edge="1" parent="1">
          <mxGeometry width="50" height="50" relative="1" as="geometry">
            <mxPoint x="489" y="398" as="sourcePoint" />
            <mxPoint x="569" y="398" as="targetPoint" />
          </mxGeometry>
        </mxCell>
        <mxCell id="g7wwVclupHJGgVZiyPSR-8" value="forecast" style="edgeLabel;html=1;align=center;verticalAlign=middle;resizable=0;points=[];fontFamily=EB Garamond;fontSize=9;" vertex="1" connectable="0" parent="g7wwVclupHJGgVZiyPSR-6">
          <mxGeometry relative="1" as="geometry">
            <mxPoint as="offset" />
          </mxGeometry>
        </mxCell>
      </root>
    </mxGraphModel>
  </diagram>
</mxfile>
